<svg width="338" height="70" viewBox="0 0 338 70" fill="none" xmlns="http://www.w3.org/2000/svg">
<g clip-path="url(#clip0_14_9)">
<path d="M15.04 66H6.24V8.56H15.04V66ZM53.49 67.2C36.93 67.2 24.13 54.64 24.13 37.2C24.13 20.24 36.29 7.36 53.01 7.36C67.81 7.36 77.81 16.4 81.33 28.32H71.09C68.93 20.96 62.61 15.28 52.77 15.28C41.41 15.28 33.25 23.84 33.25 37.36C33.25 50.08 41.01 59.68 53.81 59.68C64.45 59.68 71.17 53.12 72.77 43.28H52.93V36.24H82.05C82.37 54.64 71.09 67.2 53.49 67.2ZM129.64 66L99.4 21.12V66H91.24V8.56H100.84L130.36 52.24V8.56H138.52V66H129.64ZM176.768 67.2C160.128 67.2 147.568 54.16 147.568 37.2C147.568 20.24 160.128 7.36 176.768 7.36C193.408 7.36 205.968 20.24 205.968 37.2C205.968 54.16 193.408 67.2 176.768 67.2ZM176.768 59.28C188.928 59.28 196.848 49.52 196.848 37.2C196.848 24.88 188.928 15.28 176.768 15.28C164.608 15.28 156.688 24.88 156.688 37.2C156.688 49.52 164.608 59.28 176.768 59.28ZM223.868 66H215.068V8.56H236.508C249.708 8.56 257.628 15.04 257.628 26.48C257.628 34.72 252.428 41.04 243.708 43.12L259.308 66H248.748L234.428 44.4H223.868V66ZM223.868 15.92V37.04H235.948C244.108 37.04 248.748 33.44 248.748 26.48C248.748 19.6 244.108 15.92 235.948 15.92H223.868ZM276.603 66H267.803V8.56H276.603V66ZM311.853 66H303.053V16.48H284.333V8.56H330.573V16.48H311.853V66Z" fill="#888A8C"/>
</g>
<defs>
<clipPath id="clip0_14_9">
<rect width="338" height="70" fill="white"/>
</clipPath>
</defs>
</svg>
